# xmcd CD database file
#
# Track frame offsets:
#	150
#	22637
#	40438
#	62091
#	75609
#	84971
#	98608
#	116049
#	130759
#	148347
#	162746
#	189201
#	201782
#	214899
#	227044
#
# Disc length: 3191 seconds
#
# Revision: 0
# Processed by: cddbd v1.5.2PL0 Copyright (c) Steve Scherf et al.
# Submitted via: CDex 1.50beta9
#
DISCID=c80c750f
DTITLE=Jazz Compilation - Cool Sexy Jazz
DYEAR=2009
DGENRE=Jazz
TTITLE0=Jaqui Dankworth - On The Street Where You Live
TTITLE1=Michael Camacho - Just For You
TTITLE2=Clare Teal - I Only Have Eyes For You
TTITLE3=June Christy - Don't Get Around Much Anymore
TTITLE4=Ella Fitzgerald - What Is This Thing Called Love
TTITLE5=Stacey Kent - Shall We Dance
TTITLE6=Cornelius Brazie - You
TTITLE7=Frank Sinatra - The Lady Is A Tramp
TTITLE8=Jim Hall - Tangerine
TTITLE9=Sonny Criss - Anything Goes
TTITLE10=The Paul Moer Trio - Azure Blues
TTITLE11=Nat King Cole - It Could Happen To You
TTITLE12=Kay Starr - Please Don't Talk About Me When I'm Gone
TTITLE13=Sarah Vaughan - They Can't Take That Away
TTITLE14=Chet Baker - Time After Time
EXTD=YEAR: 2009
EXTT0=
EXTT1=
EXTT2=
EXTT3=
EXTT4=
EXTT5=
EXTT6=
EXTT7=
EXTT8=
EXTT9=
EXTT10=
EXTT11=
EXTT12=
EXTT13=
EXTT14=
PLAYORDER=
